<?xml version="1.0" encoding="utf-8"?>
<!-- Generator: Adobe Illustrator 16.0.0, SVG Export Plug-In . SVG Version: 6.00 Build 0)  -->
<!DOCTYPE svg PUBLIC "-//W3C//DTD SVG 1.1//EN" "http://www.w3.org/Graphics/SVG/1.1/DTD/svg11.dtd">
<svg version="1.1" id="圖層_1" xmlns="http://www.w3.org/2000/svg" xmlns:xlink="http://www.w3.org/1999/xlink" x="0px" y="0px"
	 width="310.067px" height="506.711px" viewBox="0 0 310.067 506.711" enable-background="new 0 0 310.067 506.711"
	 xml:space="preserve">
<path id="A" fill="#E60012" d="M288.591,8.725c0,4.819-3.906,8.725-8.725,8.725H15.436c-4.818,0-8.725-3.906-8.725-8.725l0,0
	C6.711,3.906,10.617,0,15.436,0h264.431C284.685,0,288.591,3.906,288.591,8.725L288.591,8.725z"/>
<path id="B" fill="#E60012" d="M16.778,226.51c0,4.633-3.756,8.389-8.389,8.389l0,0c-4.633,0-8.389-3.756-8.389-8.389V46.644
	c0-4.633,3.756-8.389,8.389-8.389l0,0c4.633,0,8.389,3.756,8.389,8.389V226.51z"/>
<path id="D" fill="#E60012" d="M279.194,244.631c0,5.375-4.357,9.731-9.731,9.731H43.288c-5.375,0-9.731-4.357-9.731-9.731l0,0
	c0-5.375,4.357-9.731,9.731-9.731h226.175C274.837,234.899,279.194,239.256,279.194,244.631L279.194,244.631z"/>
<path id="C" fill="#E60012" d="M310.067,214.094c0,5.931-4.808,10.738-10.738,10.738l0,0c-5.931,0-10.738-4.808-10.738-10.738
	V48.993c0-5.931,4.808-10.738,10.738-10.738l0,0c5.931,0,10.738,4.808,10.738,10.738V214.094z"/>
<path id="E" fill="#E60012" d="M22.819,470.47c0,6.301-5.108,11.409-11.41,11.409l0,0C5.108,481.879,0,476.771,0,470.47V283.892
	c0-6.301,5.108-11.409,11.409-11.409l0,0c6.301,0,11.41,5.108,11.41,11.409V470.47z"/>
<path id="G" fill="#E60012" d="M279.194,497.986c0,4.818-3.906,8.725-8.725,8.725H45.637c-4.818,0-8.725-3.906-8.725-8.725l0,0
	c0-4.818,3.906-8.725,8.725-8.725H270.47C275.288,489.262,279.194,493.168,279.194,497.986L279.194,497.986z"/>
<path id="F" fill="#E60012" d="M307.382,467.785c0,5.189-4.206,9.396-9.396,9.396l0,0c-5.189,0-9.396-4.206-9.396-9.396V275.713
	c0-5.188,4.206-9.395,9.396-9.395l0,0c5.189,0,9.396,4.207,9.396,9.395V467.785z"/>
<circle fill="#E60012" cx="151.677" cy="122.637" r="16.611"/>
<circle fill="#E60012" cx="151.677" cy="386.087" r="16.611"/>
</svg>
